<svg width="32" height="32" viewBox="0 0 32 32" fill="none" xmlns="http://www.w3.org/2000/svg">
<rect opacity="0.12" width="32" height="32" rx="4" fill="#17696A"/>
<path d="M16.1401 15.0025H22.7237C22.7964 15.4081 22.8327 15.7956 22.8327 16.1649C22.8327 17.4786 22.5572 18.6515 22.0063 19.6837C21.4554 20.7159 20.6699 21.5226 19.6498 22.1038C18.6298 22.6849 17.4599 22.9755 16.1401 22.9755C15.1896 22.9755 14.2846 22.7924 13.4249 22.4261C12.5653 22.0599 11.8237 21.565 11.2001 20.9414C10.5766 20.3179 10.0817 19.5763 9.71541 18.7166C9.34915 17.8569 9.16602 16.9519 9.16602 16.0014C9.16602 15.051 9.34915 14.1459 9.71541 13.2863C10.0817 12.4266 10.5766 11.685 11.2001 11.0615C11.8237 10.4379 12.5653 9.943 13.4249 9.57673C14.2846 9.21047 15.1896 9.02734 16.1401 9.02734C17.9563 9.02734 19.5151 9.63576 20.8167 10.8526L18.9188 12.6778C18.1742 11.9574 17.248 11.5972 16.1401 11.5972C15.3591 11.5972 14.6372 11.794 13.9743 12.1875C13.3114 12.581 12.7862 13.1152 12.3988 13.7902C12.0113 14.4653 11.8176 15.2023 11.8176 16.0014C11.8176 16.8005 12.0113 17.5376 12.3988 18.2126C12.7862 18.8876 13.3114 19.4219 13.9743 19.8154C14.6372 20.2089 15.3591 20.4056 16.1401 20.4056C16.6668 20.4056 17.1511 20.333 17.593 20.1877C18.035 20.0424 18.3982 19.8608 18.6827 19.6428C18.9673 19.4249 19.2155 19.1767 19.4274 18.8982C19.6393 18.6197 19.7951 18.3564 19.895 18.1082C19.9949 17.86 20.063 17.6239 20.0993 17.3999H16.1401V15.0025Z" fill="#17696A"/>
</svg>
