<svg width="32" height="32" viewBox="0 0 32 32" fill="none" xmlns="http://www.w3.org/2000/svg">
<rect opacity="0.12" width="32" height="32" rx="4" fill="#787A80"/>
<path d="M22.664 22.6673L22.6673 22.6668V17.7768C22.6673 15.3845 22.1523 13.5418 19.3557 13.5418C18.0112 13.5418 17.109 14.2795 16.7406 14.979H16.7018V13.7651H14.0501V22.6668H16.8112V18.259C16.8112 17.0984 17.0312 15.9762 18.4684 15.9762C19.8845 15.9762 19.9057 17.3007 19.9057 18.3334V22.6673H22.664Z" fill="#787A80"/>
<path d="M9.55398 13.7657H12.3184V22.6673H9.55398V13.7657Z" fill="#787A80"/>
<path d="M10.9351 9.33398C10.0512 9.33398 9.33398 10.0512 9.33398 10.9351C9.33398 11.819 10.0512 12.5512 10.9351 12.5512C11.819 12.5512 12.5362 11.819 12.5362 10.9351C12.5357 10.0512 11.8184 9.33398 10.9351 9.33398Z" fill="#787A80"/>
</svg>
